<svg version="1.1" id="Layer_1" xmlns="http://www.w3.org/2000/svg" xmlns:xlink="http://www.w3.org/1999/xlink" x="0px" y="0px"
	 width="100%" viewBox="0 0 486 60" enable-background="new 0 0 486 60" xml:space="preserve">
<path fill="#FBFAFC" opacity="1.000000" stroke="none" 
	d="
M362.000000,61.000000 
	C241.333344,61.000000 121.166695,61.000000 1.000032,61.000000 
	C1.000021,41.000015 1.000021,21.000034 1.000011,1.000038 
	C162.999954,1.000025 324.999908,1.000025 486.999908,1.000013 
	C486.999939,20.999962 486.999939,40.999924 486.999969,60.999943 
	C445.500000,61.000000 404.000000,61.000000 362.000000,61.000000 
M51.332100,47.002766 
	C50.536259,47.232662 49.740417,47.462555 48.314922,47.762421 
	C47.893864,47.739170 47.472805,47.715919 46.557846,47.289761 
	C45.355652,47.421997 44.153461,47.554234 42.111301,47.768913 
	C40.424030,47.743599 38.736763,47.718288 36.510784,47.279465 
	C35.004429,47.425358 33.498074,47.571255 31.503172,47.791050 
	C31.503172,47.791050 31.013523,47.724842 30.457426,47.285789 
	C28.622192,47.421642 26.786961,47.557495 24.173878,47.769901 
	C23.133179,47.744156 22.092482,47.718410 20.558134,47.289474 
	C19.355860,47.421810 18.153585,47.554142 16.228561,47.767155 
	C15.502992,47.740097 14.777421,47.713039 13.599261,47.296188 
	C12.723660,47.500565 11.848057,47.704941 10.407903,48.257717 
	C10.223669,49.281113 10.039434,50.304504 9.877812,51.202293 
	C26.966400,51.202293 43.637737,51.202293 61.208927,51.202293 
	C52.376457,35.899723 44.001949,21.390593 35.118885,6.000366 
	C27.541857,19.124985 20.552971,31.230850 13.273952,43.839275 
	C25.258253,46.615158 36.576664,44.096313 48.659901,43.944397 
	C49.448685,43.939644 50.237469,43.934891 51.545624,43.990429 
	C51.719910,43.990971 51.894196,43.991512 52.259132,44.243393 
	C52.259132,44.243393 52.278133,44.558277 52.107822,45.362041 
	C52.064835,45.905025 52.021851,46.448006 51.332100,47.002766 
M315.897491,8.106777 
	C315.540375,8.649798 314.880219,9.187515 314.870605,9.736618 
	C314.647552,22.482574 314.320099,35.231884 314.474213,47.974979 
	C314.505798,50.584255 316.873444,51.616718 319.732910,50.224644 
	C321.096924,49.560585 323.068237,49.035706 324.362244,49.520802 
	C331.377441,52.150681 337.569061,50.881138 341.295380,45.663597 
	C345.927612,39.177612 345.785187,29.620703 340.969452,23.794458 
	C336.671753,18.594854 330.750092,17.557432 323.896027,20.775549 
	C323.227509,21.089443 322.488678,21.253637 321.214600,21.675236 
	C321.214600,18.180655 321.309692,15.232373 321.186951,12.293188 
	C321.071686,9.532667 320.199310,7.312889 315.897491,8.106777 
M470.431061,10.216334 
	C470.208405,13.780791 469.985779,17.345249 469.743958,21.216581 
	C467.317230,20.421890 465.344971,19.531286 463.278503,19.146355 
	C457.646301,18.097200 452.918976,20.022295 449.876740,24.761890 
	C445.914551,30.934700 445.487579,37.602741 449.119171,44.148151 
	C452.463684,50.176208 459.585266,52.667904 465.863892,50.003998 
	C468.184082,49.019592 469.812927,48.208515 472.537994,49.812401 
	C475.379639,51.484901 477.165680,49.034683 477.188019,46.056648 
	C477.272858,34.750141 477.358368,23.440699 477.178711,12.136564 
	C477.105225,7.512146 474.940002,6.737664 470.431061,10.216334 
M186.974258,18.995308 
	C182.014191,20.011410 178.811401,23.198212 176.644562,27.544151 
	C173.735550,33.378597 175.010620,41.712421 179.460922,46.657661 
	C183.086838,50.686817 189.061890,52.206131 193.983444,50.227119 
	C196.317520,49.288563 198.080963,47.676754 201.082825,49.832279 
	C203.446930,51.529861 205.480499,49.012642 205.541809,46.356541 
	C205.721649,38.564774 205.867661,30.756920 205.545944,22.975252 
	C205.381775,19.004101 203.316315,18.307346 199.851059,20.039053 
	C198.761017,20.583778 197.265793,20.635120 196.013229,20.472281 
	C193.260788,20.114449 190.544861,19.475836 186.974258,18.995308 
M397.619415,48.038486 
	C399.483185,48.668732 401.346924,49.298973 403.210693,49.929207 
	C403.814270,48.138348 404.879303,46.362572 404.938446,44.553909 
	C405.149963,38.084484 405.170898,31.598248 404.927826,25.130999 
	C404.855316,23.202305 404.196259,20.528542 402.854401,19.650711 
	C401.725037,18.911913 399.214783,20.284012 396.264069,20.964050 
	C387.560181,17.495396 382.111847,18.433268 377.564850,24.864113 
	C373.243866,30.975368 373.803986,41.230118 378.755157,46.656162 
	C383.355408,51.697659 389.437164,52.233322 397.619415,48.038486 
M245.825409,19.984772 
	C238.573593,23.854673 235.351334,29.572010 236.299713,37.493591 
	C237.009354,43.421024 240.249817,47.734024 245.819580,49.911472 
	C251.262695,52.039394 256.703888,51.317505 261.598267,48.298378 
	C262.685913,47.627449 262.750885,45.298626 263.286743,43.733147 
	C261.796021,43.424129 260.273438,42.766922 258.823090,42.899563 
	C257.226990,43.045525 255.737839,44.157379 254.131165,44.429073 
	C249.107727,45.278553 245.378967,42.831043 244.074997,37.647137 
	C249.476181,37.647137 254.771652,37.737301 260.062592,37.621002 
	C265.046967,37.511440 266.211121,35.941574 265.267670,31.068474 
	C263.547913,22.185589 255.894485,17.510921 245.825409,19.984772 
M145.999680,22.424770 
	C140.756149,27.421265 139.576218,33.581188 141.317001,40.309040 
	C144.163528,51.310379 157.784744,53.618862 165.845230,48.422256 
	C166.944458,47.713589 166.988083,45.367569 167.520462,43.779659 
	C166.050140,43.451115 164.577988,42.867950 163.110107,42.878536 
	C162.030930,42.886322 160.988525,43.784256 159.876083,44.090908 
	C154.155258,45.667889 149.762680,43.315353 148.401443,37.613895 
	C153.806183,37.613895 159.115753,37.701431 164.421066,37.588810 
	C169.532196,37.480316 170.917908,35.545712 169.728348,30.562855 
	C167.172745,19.857883 156.204391,15.775793 145.999680,22.424770 
M104.776207,17.417847 
	C106.906456,16.885004 110.303993,16.971786 110.925255,15.701141 
	C112.669083,12.134584 108.748306,11.731651 106.688141,10.392774 
	C106.554146,10.305689 106.373405,10.289848 106.213821,10.242887 
	C92.045807,6.073602 78.494202,16.689167 79.129250,31.459253 
	C79.770790,46.380024 95.615250,55.963097 108.577995,49.097965 
	C109.884575,48.405994 110.346642,46.119408 111.200630,44.572849 
	C109.656990,43.981483 108.152298,43.179859 106.553963,42.883770 
	C105.701752,42.725903 104.706680,43.521393 103.743752,43.750935 
	C94.212852,46.022900 86.206757,39.205616 86.959312,29.482080 
	C87.692932,20.003284 93.689148,15.649672 104.776207,17.417847 
M292.450317,43.965782 
	C292.843140,46.610035 292.074280,50.513748 296.237579,49.993584 
	C297.539368,49.830936 298.825928,46.139931 299.317810,43.888859 
	C299.782623,41.761837 299.314362,39.647961 302.340698,39.064671 
	C303.334869,38.873055 304.890381,37.253262 304.761139,36.548504 
	C304.544800,35.369019 303.342926,33.729343 302.269684,33.470608 
	C299.290253,32.752350 299.414917,30.778837 299.421448,28.528721 
	C299.435455,23.707510 299.503387,18.873419 299.159424,14.072540 
	C299.062286,12.717045 297.881714,10.926173 296.697723,10.332052 
	C295.829315,9.896260 293.682983,10.695027 292.896088,11.617426 
	C286.856720,18.696783 280.865173,25.828476 275.172668,33.186779 
	C272.713684,36.365364 274.105469,38.987347 278.144165,39.312042 
	C281.617249,39.591263 285.132141,39.566223 288.617035,39.413166 
	C291.355499,39.292892 292.740936,40.187656 292.450317,43.965782 
M413.055969,31.569063 
	C413.059082,36.059135 412.952087,40.553066 413.109100,45.037750 
	C413.195038,47.492409 413.340546,50.770790 416.882751,49.997238 
	C418.262146,49.696003 419.763916,46.802155 419.978088,44.947021 
	C420.490021,40.512936 420.021210,35.972313 420.415833,31.516104 
	C420.806061,27.109409 423.843811,25.211933 428.052429,25.399309 
	C432.240723,25.585779 433.027863,28.764299 433.151550,32.091801 
	C433.318237,36.576122 432.949280,41.101089 433.426422,45.542416 
	C433.604675,47.201496 435.515564,48.674431 436.636444,50.232227 
	C437.821991,48.756020 439.940155,47.332508 440.027100,45.794224 
	C440.354462,40.000992 440.319885,34.146732 439.862396,28.359468 
	C439.215424,20.174568 432.198334,16.468462 424.742706,20.093737 
	C423.303955,20.793331 421.985840,21.740915 421.525513,22.020105 
	C419.046631,21.011087 416.607819,19.285564 415.813141,19.854881 
	C414.374664,20.885452 413.614960,23.210272 413.139465,25.134937 
	C412.713593,26.858677 413.051819,28.771179 413.055969,31.569063 
M230.084900,48.538101 
	C231.422226,45.745285 230.942963,44.264633 227.466263,43.945866 
	C226.216431,43.831268 224.175751,42.242760 224.095520,41.203430 
	C223.730530,36.475643 223.935547,31.703852 223.935547,26.947887 
	C224.342880,27.227213 224.750214,27.506536 225.157547,27.785860 
	C227.125961,26.228033 229.094360,24.670206 231.062759,23.112373 
	C229.050186,21.622227 227.037598,20.132078 225.025024,18.641932 
	C224.184174,18.777102 224.221970,18.027332 223.883942,17.536255 
	C222.799500,15.960789 221.576096,14.480991 220.406311,12.964283 
	C219.231033,14.315885 218.075516,15.685369 216.874207,17.013443 
	C215.906250,18.083574 214.869278,19.090986 213.888199,20.149647 
	C212.967957,21.142673 211.555908,22.074371 211.357147,23.207859 
	C211.216263,24.011297 212.594528,25.291431 213.554016,26.014866 
	C214.411362,26.661318 215.623901,26.836691 216.816833,27.269703 
	C216.816833,31.909023 216.762711,36.382713 216.828369,40.854649 
	C216.955673,49.525753 221.284363,52.303917 230.084900,48.538101 
M117.538383,43.982327 
	C117.783257,46.737553 117.388519,50.501087 121.441055,49.908657 
	C122.829735,49.705650 124.265953,46.079243 124.674416,43.833866 
	C125.230713,40.775890 124.753525,37.540577 124.842522,34.384781 
	C125.054008,26.885416 126.441315,25.696520 133.936462,25.366808 
	C135.274017,25.307970 136.541916,23.665888 137.841980,22.754856 
	C136.716537,21.533405 135.523804,19.228790 134.478256,19.293736 
	C131.350037,19.488041 128.279419,20.609625 125.072472,21.397139 
	C123.602921,21.001528 120.854126,19.493818 120.027893,20.208567 
	C118.577332,21.463396 117.756744,24.049320 117.643143,26.130707 
	C117.335602,31.765879 117.537811,37.428871 117.538383,43.982327 
M370.287018,20.223530 
	C365.751678,17.091122 362.185303,20.071011 359.617737,21.622925 
	C356.894379,20.925198 354.725677,19.644436 353.503876,20.255838 
	C352.223907,20.896366 351.253052,23.331060 351.190002,25.020481 
	C350.936493,31.812342 350.883362,38.629799 351.234131,45.413074 
	C351.319458,47.063381 353.223694,48.619633 354.291565,50.219116 
	C355.569763,48.631561 357.710236,47.165859 357.955231,45.432312 
	C358.553802,41.196609 358.056061,36.819210 358.403778,32.531620 
	C358.880463,26.653631 360.823181,25.070950 366.700592,25.393116 
	C370.084412,25.578596 371.998840,24.720493 370.287018,20.223530 
z"/>
<path fill="#3081BD" opacity="1.000000" stroke="none" 
	d="
M31.013523,47.724842 
	C31.013523,47.724842 31.503172,47.791050 32.160683,47.853378 
	C34.228626,47.841457 35.639061,47.767216 37.049492,47.692974 
	C38.736763,47.718288 40.424030,47.743599 42.933174,47.836555 
	C44.853943,47.833691 45.952847,47.763180 47.051746,47.692669 
	C47.472805,47.715919 47.893864,47.739170 49.016014,47.838299 
	C50.801632,46.988350 54.592888,50.219589 53.150135,45.387131 
	C52.842083,44.891556 52.592045,44.686066 52.278133,44.558277 
	C52.278133,44.558277 52.259132,44.243393 52.128662,43.820351 
	C51.730804,43.106682 51.463417,42.816063 51.115852,42.193798 
	C48.483383,37.539600 45.931099,33.217045 43.257553,28.567734 
	C42.108322,26.488153 41.080353,24.735331 39.994122,22.701931 
	C39.671638,22.156036 39.407417,21.890720 39.085503,21.306749 
	C38.006207,19.329098 36.984604,17.670099 35.911842,15.730528 
	C35.326706,15.648637 34.792736,15.847319 34.021263,16.313551 
	C29.404781,24.070494 25.025801,31.559887 20.530571,39.158798 
	C20.300440,39.605247 20.412291,39.862183 21.233454,40.064907 
	C28.050880,40.090702 34.384727,40.090702 41.602024,40.090702 
	C39.092838,36.052086 37.248383,33.083374 35.190224,29.770702 
	C33.396561,32.257114 32.052593,34.120155 30.384762,35.973282 
	C29.417139,35.120831 28.773378,34.278286 28.159346,33.059063 
	C30.122458,29.437592 32.055840,26.192799 34.299477,22.879240 
	C34.975979,22.604374 35.342236,22.398275 35.904961,22.502071 
	C36.391350,23.205097 36.681267,23.598227 36.997780,24.286787 
	C37.295216,24.863398 37.566059,25.144579 37.890717,25.727419 
	C38.598438,27.030378 39.252338,28.031677 39.977913,29.381847 
	C42.656921,34.461979 45.264263,39.193241 47.871605,43.924503 
	C36.576664,44.096313 25.258253,46.615158 13.273952,43.839275 
	C20.552971,31.230850 27.541857,19.124985 35.118885,6.000366 
	C44.001949,21.390593 52.376457,35.899723 61.208927,51.202293 
	C43.637737,51.202293 26.966400,51.202293 9.877812,51.202293 
	C10.039434,50.304504 10.223669,49.281113 11.076913,48.136101 
	C12.514565,47.904987 13.283209,47.795486 14.051851,47.685986 
	C14.777421,47.713039 15.502992,47.740097 16.991821,47.835678 
	C18.853983,47.833687 19.952883,47.763176 21.051783,47.692665 
	C22.092482,47.718410 23.133179,47.744156 24.986267,47.843533 
	C27.536947,47.853058 29.275234,47.788952 31.013523,47.724842 
z"/>
<path fill="#463D67" opacity="1.000000" stroke="none" 
	d="
M316.305176,7.966248 
	C320.199310,7.312889 321.071686,9.532667 321.186951,12.293188 
	C321.309692,15.232373 321.214600,18.180655 321.214600,21.675236 
	C322.488678,21.253637 323.227509,21.089443 323.896027,20.775549 
	C330.750092,17.557432 336.671753,18.594854 340.969452,23.794458 
	C345.785187,29.620703 345.927612,39.177612 341.295380,45.663597 
	C337.569061,50.881138 331.377441,52.150681 324.362244,49.520802 
	C323.068237,49.035706 321.096924,49.560585 319.732910,50.224644 
	C316.873444,51.616718 314.505798,50.584255 314.474213,47.974979 
	C314.320099,35.231884 314.647552,22.482574 314.870605,9.736618 
	C314.880219,9.187515 315.540375,8.649798 316.305176,7.966248 
M330.980316,44.444019 
	C336.895203,42.204098 339.294647,36.770500 336.983124,30.850670 
	C335.235657,26.375353 330.632904,24.146341 326.573364,25.809397 
	C321.985443,27.688919 319.753357,34.256992 321.960754,39.508022 
	C323.496033,43.160183 326.343048,44.747452 330.980316,44.444019 
z"/>
<path fill="#453C66" opacity="1.000000" stroke="none" 
	d="
M470.601746,9.819919 
	C474.940002,6.737664 477.105225,7.512146 477.178711,12.136564 
	C477.358368,23.440699 477.272858,34.750141 477.188019,46.056648 
	C477.165680,49.034683 475.379639,51.484901 472.537994,49.812401 
	C469.812927,48.208515 468.184082,49.019592 465.863892,50.003998 
	C459.585266,52.667904 452.463684,50.176208 449.119171,44.148151 
	C445.487579,37.602741 445.914551,30.934700 449.876740,24.761890 
	C452.918976,20.022295 457.646301,18.097200 463.278503,19.146355 
	C465.344971,19.531286 467.317230,20.421890 469.743958,21.216581 
	C469.985779,17.345249 470.208405,13.780791 470.601746,9.819919 
M460.737427,44.481915 
	C465.365906,44.912670 468.533844,42.835629 469.708649,38.459824 
	C470.877472,34.106293 470.508148,29.884083 466.445129,26.843763 
	C462.916138,24.203043 457.986481,24.971022 455.524170,28.567854 
	C451.775482,34.043736 453.809296,41.327282 460.737427,44.481915 
z"/>
<path fill="#483F68" opacity="1.000000" stroke="none" 
	d="
M187.394135,18.973576 
	C190.544861,19.475836 193.260788,20.114449 196.013229,20.472281 
	C197.265793,20.635120 198.761017,20.583778 199.851059,20.039053 
	C203.316315,18.307346 205.381775,19.004101 205.545944,22.975252 
	C205.867661,30.756920 205.721649,38.564774 205.541809,46.356541 
	C205.480499,49.012642 203.446930,51.529861 201.082825,49.832279 
	C198.080963,47.676754 196.317520,49.288563 193.983444,50.227119 
	C189.061890,52.206131 183.086838,50.686817 179.460922,46.657661 
	C175.010620,41.712421 173.735550,33.378597 176.644562,27.544151 
	C178.811401,23.198212 182.014191,20.011410 187.394135,18.973576 
M192.188354,44.379887 
	C198.262497,41.993679 201.001480,34.691017 197.174576,29.379246 
	C195.679642,27.304272 192.232925,25.389866 189.831451,25.563490 
	C187.423447,25.737585 184.250015,28.115351 183.091156,30.384716 
	C179.572800,37.274593 183.633743,43.753593 192.188354,44.379887 
z"/>
<path fill="#443B65" opacity="1.000000" stroke="none" 
	d="
M397.238342,48.144539 
	C389.437164,52.233322 383.355408,51.697659 378.755157,46.656162 
	C373.803986,41.230118 373.243866,30.975368 377.564850,24.864113 
	C382.111847,18.433268 387.560181,17.495396 396.264069,20.964050 
	C399.214783,20.284012 401.725037,18.911913 402.854401,19.650711 
	C404.196259,20.528542 404.855316,23.202305 404.927826,25.130999 
	C405.170898,31.598248 405.149963,38.084484 404.938446,44.553909 
	C404.879303,46.362572 403.814270,48.138348 403.210693,49.929211 
	C401.346924,49.298973 399.483185,48.668732 397.238342,48.144539 
M388.843658,25.277155 
	C387.498291,25.876427 385.988739,26.255550 384.837158,27.114614 
	C380.739258,30.171618 380.144928,38.048134 383.591827,41.909405 
	C386.408997,45.065254 392.283142,45.488583 395.167419,42.513477 
	C398.362762,39.217445 398.708771,35.154194 397.356598,30.959520 
	C396.170624,27.280355 393.583099,25.260023 388.843658,25.277155 
z"/>
<path fill="#473F67" opacity="1.000000" stroke="none" 
	d="
M246.190369,19.811913 
	C255.894485,17.510921 263.547913,22.185589 265.267670,31.068474 
	C266.211121,35.941574 265.046967,37.511440 260.062592,37.621002 
	C254.771652,37.737301 249.476181,37.647137 244.074997,37.647137 
	C245.378967,42.831043 249.107727,45.278553 254.131165,44.429073 
	C255.737839,44.157379 257.226990,43.045525 258.823090,42.899563 
	C260.273438,42.766922 261.796021,43.424129 263.286743,43.733143 
	C262.750885,45.298626 262.685913,47.627449 261.598267,48.298378 
	C256.703888,51.317505 251.262695,52.039394 245.819580,49.911472 
	C240.249817,47.734024 237.009354,43.421024 236.299713,37.493591 
	C235.351334,29.572010 238.573593,23.854673 246.190369,19.811913 
M246.858124,26.328312 
	C245.719879,27.709295 244.581650,29.090281 242.884933,31.148849 
	C248.718033,31.148849 253.334656,31.148849 258.115234,31.148849 
	C256.052856,25.622236 253.652466,24.532471 246.858124,26.328312 
z"/>
<path fill="#473F67" opacity="1.000000" stroke="none" 
	d="
M146.281250,22.183064 
	C156.204391,15.775793 167.172745,19.857883 169.728348,30.562855 
	C170.917908,35.545712 169.532196,37.480316 164.421066,37.588810 
	C159.115753,37.701431 153.806183,37.613895 148.401443,37.613895 
	C149.762680,43.315353 154.155258,45.667889 159.876083,44.090908 
	C160.988525,43.784256 162.030930,42.886322 163.110107,42.878536 
	C164.577988,42.867950 166.050140,43.451115 167.520447,43.779655 
	C166.988083,45.367569 166.944458,47.713589 165.845230,48.422256 
	C157.784744,53.618862 144.163528,51.310379 141.317001,40.309040 
	C139.576218,33.581188 140.756149,27.421265 146.281250,22.183064 
M162.018204,31.207272 
	C162.724670,26.899519 159.458328,25.896250 156.532486,25.368097 
	C152.370163,24.616747 149.171463,26.202703 147.850037,31.523020 
	C152.567825,31.523020 156.937424,31.523020 162.018204,31.207272 
z"/>
<path fill="#463D67" opacity="1.000000" stroke="none" 
	d="
M104.367477,17.278656 
	C93.689148,15.649672 87.692932,20.003284 86.959312,29.482080 
	C86.206757,39.205616 94.212852,46.022900 103.743752,43.750935 
	C104.706680,43.521393 105.701752,42.725903 106.553963,42.883770 
	C108.152298,43.179859 109.656990,43.981483 111.200630,44.572853 
	C110.346642,46.119408 109.884575,48.405994 108.577995,49.097965 
	C95.615250,55.963097 79.770790,46.380024 79.129250,31.459253 
	C78.494202,16.689167 92.045807,6.073602 106.213821,10.242887 
	C106.373405,10.289848 106.554146,10.305689 106.688141,10.392774 
	C108.748306,11.731651 112.669083,12.134584 110.925255,15.701141 
	C110.303993,16.971786 106.906456,16.885004 104.367477,17.278656 
z"/>
<path fill="#423963" opacity="1.000000" stroke="none" 
	d="
M292.443604,43.512665 
	C292.740936,40.187656 291.355499,39.292892 288.617035,39.413166 
	C285.132141,39.566223 281.617249,39.591263 278.144165,39.312042 
	C274.105469,38.987347 272.713684,36.365364 275.172668,33.186779 
	C280.865173,25.828476 286.856720,18.696783 292.896088,11.617426 
	C293.682983,10.695027 295.829315,9.896260 296.697723,10.332052 
	C297.881714,10.926173 299.062286,12.717045 299.159424,14.072540 
	C299.503387,18.873419 299.435455,23.707510 299.421448,28.528721 
	C299.414917,30.778837 299.290253,32.752350 302.269684,33.470608 
	C303.342926,33.729343 304.544800,35.369019 304.761139,36.548504 
	C304.890381,37.253262 303.334869,38.873055 302.340698,39.064671 
	C299.314362,39.647961 299.782623,41.761837 299.317810,43.888859 
	C298.825928,46.139931 297.539368,49.830936 296.237579,49.993584 
	C292.074280,50.513748 292.843140,46.610035 292.443604,43.512665 
M291.960999,32.701553 
	C292.255341,29.387630 292.549683,26.073708 292.844025,22.759785 
	C292.392548,22.637436 291.941071,22.515087 291.489594,22.392736 
	C288.929657,25.648052 286.369690,28.903370 283.110565,33.047798 
	C286.632507,33.047798 288.899170,33.047798 291.960999,32.701553 
z"/>
<path fill="#463D66" opacity="1.000000" stroke="none" 
	d="
M413.054443,31.084730 
	C413.051819,28.771179 412.713593,26.858677 413.139465,25.134937 
	C413.614960,23.210272 414.374664,20.885452 415.813141,19.854881 
	C416.607819,19.285564 419.046631,21.011087 421.525513,22.020105 
	C421.985840,21.740915 423.303955,20.793331 424.742706,20.093737 
	C432.198334,16.468462 439.215424,20.174568 439.862396,28.359468 
	C440.319885,34.146732 440.354462,40.000992 440.027100,45.794224 
	C439.940155,47.332508 437.821991,48.756020 436.636444,50.232231 
	C435.515564,48.674431 433.604675,47.201496 433.426422,45.542416 
	C432.949280,41.101089 433.318237,36.576122 433.151550,32.091801 
	C433.027863,28.764299 432.240723,25.585779 428.052429,25.399309 
	C423.843811,25.211933 420.806061,27.109409 420.415833,31.516104 
	C420.021210,35.972313 420.490021,40.512936 419.978088,44.947021 
	C419.763916,46.802155 418.262146,49.696003 416.882751,49.997238 
	C413.340546,50.770790 413.195038,47.492409 413.109100,45.037750 
	C412.952087,40.553066 413.059082,36.059135 413.054443,31.084730 
z"/>
<path fill="#473E67" opacity="1.000000" stroke="none" 
	d="
M229.816315,48.808941 
	C221.284363,52.303917 216.955673,49.525753 216.828369,40.854649 
	C216.762711,36.382713 216.816833,31.909023 216.816833,27.269703 
	C215.623901,26.836691 214.411362,26.661318 213.554016,26.014866 
	C212.594528,25.291431 211.216263,24.011297 211.357147,23.207859 
	C211.555908,22.074371 212.967957,21.142673 213.888199,20.149647 
	C214.869278,19.090986 215.906250,18.083574 216.874207,17.013443 
	C218.075516,15.685369 219.231033,14.315885 220.406311,12.964283 
	C221.576096,14.480991 222.799500,15.960789 223.883942,17.536255 
	C224.221970,18.027332 224.184174,18.777102 225.025024,18.641932 
	C227.037598,20.132078 229.050186,21.622227 231.062759,23.112377 
	C229.094360,24.670206 227.125961,26.228033 225.157547,27.785860 
	C224.750214,27.506536 224.342880,27.227213 223.935547,26.947887 
	C223.935547,31.703852 223.730530,36.475643 224.095520,41.203430 
	C224.175751,42.242760 226.216431,43.831268 227.466263,43.945866 
	C230.942963,44.264633 231.422226,45.745285 229.816315,48.808941 
z"/>
<path fill="#463D66" opacity="1.000000" stroke="none" 
	d="
M117.538116,43.531578 
	C117.537811,37.428871 117.335602,31.765879 117.643143,26.130707 
	C117.756744,24.049320 118.577332,21.463396 120.027893,20.208567 
	C120.854126,19.493818 123.602921,21.001528 125.072472,21.397139 
	C128.279419,20.609625 131.350037,19.488041 134.478256,19.293736 
	C135.523804,19.228790 136.716537,21.533405 137.841980,22.754856 
	C136.541916,23.665888 135.274017,25.307970 133.936462,25.366808 
	C126.441315,25.696520 125.054008,26.885416 124.842522,34.384781 
	C124.753525,37.540577 125.230713,40.775890 124.674416,43.833866 
	C124.265953,46.079243 122.829735,49.705650 121.441055,49.908657 
	C117.388519,50.501087 117.783257,46.737553 117.538116,43.531578 
z"/>
<path fill="#473F66" opacity="1.000000" stroke="none" 
	d="
M370.522919,20.552162 
	C371.998840,24.720493 370.084412,25.578596 366.700592,25.393116 
	C360.823181,25.070950 358.880463,26.653631 358.403778,32.531620 
	C358.056061,36.819210 358.553802,41.196609 357.955231,45.432312 
	C357.710236,47.165859 355.569763,48.631561 354.291565,50.219124 
	C353.223694,48.619633 351.319458,47.063381 351.234131,45.413074 
	C350.883362,38.629799 350.936493,31.812342 351.190002,25.020481 
	C351.253052,23.331060 352.223907,20.896366 353.503876,20.255838 
	C354.725677,19.644436 356.894379,20.925198 359.617737,21.622925 
	C362.185303,20.071011 365.751678,17.091122 370.522919,20.552162 
z"/>
<path fill="#D4EFFB" opacity="1.000000" stroke="none" 
	d="
M48.265755,43.934448 
	C45.264263,39.193241 42.656921,34.461979 40.411652,29.370026 
	C41.642086,28.971052 42.510452,28.932770 43.378815,28.894489 
	C45.931099,33.217045 48.483383,37.539600 51.061798,42.544296 
	C51.067371,43.461006 51.046810,43.695572 51.026253,43.930138 
	C50.237469,43.934891 49.448685,43.939644 48.265755,43.934448 
z"/>
<path fill="#B4DAF6" opacity="1.000000" stroke="none" 
	d="
M53.272026,45.599514 
	C54.592888,50.219589 50.801632,46.988350 49.330841,47.803314 
	C49.740417,47.462555 50.536259,47.232662 51.936462,46.835464 
	C52.784557,46.311947 53.028290,45.955730 53.272026,45.599514 
z"/>
<path fill="#B4DAF6" opacity="1.000000" stroke="none" 
	d="
M30.735474,47.505318 
	C29.275234,47.788952 27.536947,47.853058 25.375193,47.805252 
	C26.786961,47.557495 28.622192,47.421642 30.735474,47.505318 
z"/>
<path fill="#B4DAF6" opacity="1.000000" stroke="none" 
	d="
M36.780136,47.486221 
	C35.639061,47.767216 34.228626,47.841457 32.404957,47.816429 
	C33.498074,47.571255 35.004429,47.425358 36.780136,47.486221 
z"/>
<path fill="#B4DAF6" opacity="1.000000" stroke="none" 
	d="
M20.804958,47.491066 
	C19.952883,47.763176 18.853983,47.833687 17.353197,47.795338 
	C18.153585,47.554142 19.355860,47.421810 20.804958,47.491066 
z"/>
<path fill="#B4DAF6" opacity="1.000000" stroke="none" 
	d="
M46.804794,47.491215 
	C45.952847,47.763180 44.853943,47.833691 43.353157,47.795334 
	C44.153461,47.554234 45.355652,47.421997 46.804794,47.491215 
z"/>
<path fill="#B4DAF6" opacity="1.000000" stroke="none" 
	d="
M13.825556,47.491089 
	C13.283209,47.795486 12.514565,47.904987 11.359188,47.961903 
	C11.848057,47.704941 12.723660,47.500565 13.825556,47.491089 
z"/>
<path fill="#C9EAF9" opacity="1.000000" stroke="none" 
	d="
M53.150135,45.387131 
	C53.028290,45.955730 52.784557,46.311947 52.259842,46.829575 
	C52.021851,46.448006 52.064835,45.905025 52.192978,44.960159 
	C52.592045,44.686066 52.842083,44.891556 53.150135,45.387131 
z"/>
<path fill="#C9EAF9" opacity="1.000000" stroke="none" 
	d="
M51.285938,43.960281 
	C51.046810,43.695572 51.067371,43.461006 51.141979,42.875938 
	C51.463417,42.816063 51.730804,43.106682 52.033337,43.694679 
	C51.894196,43.991512 51.719910,43.990971 51.285938,43.960281 
z"/>
<path fill="#EBFAFE" opacity="1.000000" stroke="none" 
	d="
M43.257553,28.567734 
	C42.510452,28.932770 41.642086,28.971052 40.339981,29.021156 
	C39.252338,28.031677 38.598438,27.030378 37.863033,25.427738 
	C37.511414,24.548050 37.241302,24.269703 36.971188,23.991356 
	C36.681267,23.598227 36.391350,23.205097 35.717766,22.434536 
	C34.885803,22.354071 34.437515,22.651039 33.989223,22.948008 
	C32.055840,26.192799 30.122458,29.437592 27.845993,33.088257 
	C27.171719,34.250744 26.840527,35.007362 26.509335,35.763981 
	C27.909100,35.837051 29.308861,35.910122 30.708624,35.983192 
	C32.052593,34.120155 33.396561,32.257114 35.190224,29.770702 
	C37.248383,33.083374 39.092838,36.052086 41.602024,40.090702 
	C34.384727,40.090702 28.050880,40.090702 21.212410,39.817005 
	C20.707787,39.543308 20.646822,39.049282 20.646820,39.049282 
	C25.025801,31.559887 29.404781,24.070494 34.305176,16.311630 
	C35.205395,16.031807 35.584202,16.021454 35.963005,16.011103 
	C36.984604,17.670099 38.006207,19.329098 39.124680,21.597534 
	C39.498497,22.465487 39.775444,22.723997 40.052387,22.982506 
	C41.080353,24.735331 42.108322,26.488153 43.257553,28.567734 
z"/>
<path fill="#3987C0" opacity="1.000000" stroke="none" 
	d="
M30.384762,35.973282 
	C29.308861,35.910122 27.909100,35.837051 26.509335,35.763981 
	C26.840527,35.007362 27.171719,34.250744 27.816265,33.464935 
	C28.773378,34.278286 29.417139,35.120831 30.384762,35.973282 
z"/>
<path fill="#D4EFFB" opacity="1.000000" stroke="none" 
	d="
M34.299477,22.879240 
	C34.437515,22.651039 34.885803,22.354071 35.521294,22.124640 
	C35.342236,22.398275 34.975979,22.604374 34.299477,22.879240 
z"/>
<path fill="#D4EFFB" opacity="1.000000" stroke="none" 
	d="
M35.911842,15.730528 
	C35.584202,16.021454 35.205395,16.031807 34.542679,16.044079 
	C34.792736,15.847319 35.326706,15.648637 35.911842,15.730528 
z"/>
<path fill="#3987C0" opacity="1.000000" stroke="none" 
	d="
M20.530571,39.158798 
	C20.646822,39.049282 20.707787,39.543308 20.728830,39.791210 
	C20.412291,39.862183 20.300440,39.605247 20.530571,39.158798 
z"/>
<path fill="#D4EFFB" opacity="1.000000" stroke="none" 
	d="
M36.997780,24.286787 
	C37.241302,24.269703 37.511414,24.548050 37.809212,25.126078 
	C37.566059,25.144579 37.295216,24.863398 36.997780,24.286787 
z"/>
<path fill="#D4EFFB" opacity="1.000000" stroke="none" 
	d="
M39.994122,22.701931 
	C39.775444,22.723997 39.498497,22.465487 39.182377,21.916191 
	C39.407417,21.890720 39.671638,22.156036 39.994122,22.701931 
z"/>
<path fill="#F2F1F5" opacity="1.000000" stroke="none" 
	d="
M330.610962,44.511757 
	C326.343048,44.747452 323.496033,43.160183 321.960754,39.508022 
	C319.753357,34.256992 321.985443,27.688919 326.573364,25.809397 
	C330.632904,24.146341 335.235657,26.375353 336.983124,30.850670 
	C339.294647,36.770500 336.895203,42.204098 330.610962,44.511757 
z"/>
<path fill="#F5F3F7" opacity="1.000000" stroke="none" 
	d="
M460.327148,44.390427 
	C453.809296,41.327282 451.775482,34.043736 455.524170,28.567854 
	C457.986481,24.971022 462.916138,24.203043 466.445129,26.843763 
	C470.508148,29.884083 470.877472,34.106293 469.708649,38.459824 
	C468.533844,42.835629 465.365906,44.912670 460.327148,44.390427 
z"/>
<path fill="#F3F1F5" opacity="1.000000" stroke="none" 
	d="
M191.767334,44.451401 
	C183.633743,43.753593 179.572800,37.274593 183.091156,30.384716 
	C184.250015,28.115351 187.423447,25.737585 189.831451,25.563490 
	C192.232925,25.389866 195.679642,27.304272 197.174576,29.379246 
	C201.001480,34.691017 198.262497,41.993679 191.767334,44.451401 
z"/>
<path fill="#F3F1F6" opacity="1.000000" stroke="none" 
	d="
M389.225433,25.259611 
	C393.583099,25.260023 396.170624,27.280355 397.356598,30.959520 
	C398.708771,35.154194 398.362762,39.217445 395.167419,42.513477 
	C392.283142,45.488583 386.408997,45.065254 383.591827,41.909405 
	C380.144928,38.048134 380.739258,30.171618 384.837158,27.114614 
	C385.988739,26.255550 387.498291,25.876427 389.225433,25.259611 
z"/>
<path fill="#E0DDE7" opacity="1.000000" stroke="none" 
	d="
M247.206146,26.147411 
	C253.652466,24.532471 256.052856,25.622236 258.115234,31.148849 
	C253.334656,31.148849 248.718033,31.148849 242.884933,31.148849 
	C244.581650,29.090281 245.719879,27.709295 247.206146,26.147411 
z"/>
<path fill="#DDDAE5" opacity="1.000000" stroke="none" 
	d="
M161.662613,31.365147 
	C156.937424,31.523020 152.567825,31.523020 147.850037,31.523020 
	C149.171463,26.202703 152.370163,24.616747 156.532486,25.368097 
	C159.458328,25.896250 162.724670,26.899519 161.662613,31.365147 
z"/>
<path fill="#DAD7E4" opacity="1.000000" stroke="none" 
	d="
M291.563416,32.874676 
	C288.899170,33.047798 286.632507,33.047798 283.110565,33.047798 
	C286.369690,28.903370 288.929657,25.648052 291.489594,22.392736 
	C291.941071,22.515087 292.392548,22.637436 292.844025,22.759785 
	C292.549683,26.073708 292.255341,29.387630 291.563416,32.874676 
z"/>
</svg>