<svg version="1.1" id="Layer_1" xmlns="http://www.w3.org/2000/svg" xmlns:xlink="http://www.w3.org/1999/xlink" x="0px" y="0px"
	 width="100%" viewBox="0 0 242 267" enable-background="new 0 0 242 267" xml:space="preserve">
<path fill="#FAFAFC" opacity="1.000000" stroke="none" 
	d="
M1.000000,252.000000 
	C1.000000,175.979111 1.000000,99.958206 1.468657,23.468863 
	C82.291542,23.000275 162.645767,23.000137 243.000000,23.000000 
	C243.000000,99.020897 243.000000,175.041794 242.531342,251.531342 
	C161.708450,252.000000 81.354225,252.000000 1.000000,252.000000 
M183.067093,191.117310 
	C182.591568,196.851791 179.369186,199.784012 173.747223,200.353287 
	C173.412827,200.387146 173.142853,201.057449 171.985519,201.577530 
	C152.697754,201.669006 133.410065,201.798050 114.122185,201.841553 
	C94.149788,201.886597 74.177185,201.834396 54.204708,201.854309 
	C46.563450,201.861923 38.896145,201.578629 31.288647,202.111847 
	C24.133924,202.613342 21.023266,207.002304 21.475140,214.486847 
	C86.148018,214.486847 150.820892,214.486847 216.072296,214.486847 
	C182.894547,157.006195 150.019394,100.049797 116.824509,42.539463 
	C88.880463,90.940559 61.387352,138.560608 33.670410,186.568344 
	C52.463116,190.986465 70.991646,192.352814 89.612411,191.481247 
	C114.724953,190.305817 139.807495,188.489594 165.849991,186.963348 
	C171.098083,187.002365 176.346191,187.041382 181.879303,187.770142 
	C182.553970,188.774307 183.228638,189.778473 183.067093,191.117310 
z"/>
<path fill="#FFFFFF" opacity="1.000000" stroke="none" 
	d="
M1.000000,21.000000 
	C1.000000,14.343708 1.000000,7.687416 1.000004,1.038435 
	C81.666679,1.045746 162.333344,1.045746 243.000000,1.045746 
	C243.000000,7.414967 243.000000,13.738441 242.531342,20.530956 
	C161.708450,21.000000 81.354225,21.000000 1.000000,21.000000 
z"/>
<path fill="#FFFFFF" opacity="1.000000" stroke="none" 
	d="
M243.000000,254.000000 
	C243.000000,258.658905 243.000000,263.317810 243.000000,267.970032 
	C162.333328,267.963318 81.666656,267.963318 1.000000,267.963318 
	C1.000000,263.600494 1.000000,259.274384 1.468657,254.474121 
	C82.291542,254.000000 162.645767,254.000000 243.000000,254.000000 
z"/>
<path fill="#FFFEFF" opacity="1.000000" stroke="none" 
	d="
M1.000000,21.333332 
	C81.354225,21.000000 161.708450,21.000000 242.531342,21.000000 
	C243.000000,21.444445 243.000000,21.888889 243.000000,22.666668 
	C162.645767,23.000137 82.291542,23.000275 1.468657,23.000206 
	C1.000000,22.555555 1.000000,22.111111 1.000000,21.333332 
z"/>
<path fill="#FEFEFE" opacity="1.000000" stroke="none" 
	d="
M243.000000,253.666672 
	C162.645767,254.000000 82.291542,254.000000 1.468657,254.000000 
	C1.000000,253.555557 1.000000,253.111099 1.000000,252.333328 
	C81.354225,252.000000 161.708450,252.000000 242.531342,252.000000 
	C243.000000,252.444443 243.000000,252.888901 243.000000,253.666672 
z"/>
<path fill="#3282BE" opacity="1.000000" stroke="none" 
	d="
M164.902924,186.948364 
	C139.807495,188.489594 114.724953,190.305817 89.612411,191.481247 
	C70.991646,192.352814 52.463116,190.986465 33.670410,186.568344 
	C61.387352,138.560608 88.880463,90.940559 116.824509,42.539463 
	C150.019394,100.049797 182.894547,157.006195 216.072296,214.486847 
	C150.820892,214.486847 86.148018,214.486847 21.474800,214.482925 
	C21.023266,207.002304 24.133924,202.613342 31.288647,202.111847 
	C38.896145,201.578629 46.563450,201.861923 54.204708,201.854309 
	C74.177185,201.834396 94.149788,201.886597 114.122185,201.841553 
	C133.410065,201.798050 152.697754,201.669006 172.827637,201.682007 
	C176.778519,202.200943 179.894104,202.942093 182.992828,202.877304 
	C184.327957,202.849396 186.851761,200.947876 186.734879,200.248718 
	C186.196030,197.025650 184.916962,193.926346 183.903290,190.782654 
	C183.228638,189.778473 182.553970,188.774307 181.721176,187.089508 
	C170.566360,167.573105 159.569672,148.737335 148.444672,129.550293 
	C139.730392,114.211441 131.122559,99.236336 122.569183,84.230179 
	C119.127960,78.192856 114.961403,77.948174 111.379028,83.970406 
	C95.249039,111.086037 79.203766,138.252319 63.248882,165.471222 
	C62.226952,167.214645 62.225975,169.556534 61.584351,172.338470 
	C88.700630,172.338470 114.724121,172.338470 141.668274,172.338470 
	C133.398544,159.050476 125.439445,146.261612 117.145027,132.933945 
	C113.006493,138.555313 109.614120,143.477173 105.878265,148.122787 
	C103.542122,151.027847 100.688484,153.516754 97.893677,155.883301 
	C95.548943,153.044861 93.377563,150.515518 91.113388,147.596100 
	C91.519440,145.345657 91.638016,143.261765 92.578827,141.661179 
	C98.713593,131.224075 104.933258,120.833855 111.314400,110.545685 
	C115.544998,103.724785 119.015549,103.995804 123.167511,110.990578 
	C127.977814,119.094452 132.943817,127.105911 137.854248,135.109863 
	C137.866272,135.062241 137.770081,135.082169 137.759674,135.403214 
	C138.117599,136.201904 138.485931,136.679535 138.867584,137.109436 
	C138.880920,137.061691 138.782806,137.075943 138.781158,137.394073 
	C139.139496,138.191589 139.499512,138.670975 139.884247,139.108734 
	C139.908981,139.067093 139.813599,139.050323 139.813034,139.412109 
	C140.186310,140.372498 140.560165,140.971085 140.945129,141.904984 
	C141.308090,142.989059 141.625275,143.756485 142.016907,144.483810 
	C149.640381,158.641464 157.272537,172.794434 164.902924,186.948364 
z"/>
<path fill="#D3EDFA" opacity="1.000000" stroke="none" 
	d="
M165.376465,186.955856 
	C157.272537,172.794434 149.640381,158.641464 142.016907,144.483810 
	C141.625275,143.756485 141.308090,142.989059 140.938812,141.527588 
	C140.552124,140.226700 140.182861,139.638504 139.813599,139.050323 
	C139.813599,139.050323 139.908981,139.067093 139.906921,138.779633 
	C139.530838,138.020111 139.156830,137.548019 138.782806,137.075943 
	C138.782806,137.075943 138.880920,137.061691 138.892517,136.778320 
	C138.526093,136.024002 138.148087,135.553085 137.770081,135.082169 
	C137.770081,135.082169 137.866272,135.062241 137.913452,134.709290 
	C139.620972,128.399704 144.748199,130.702011 148.572983,129.901550 
	C159.569672,148.737335 170.566360,167.573105 181.578674,186.744629 
	C176.346191,187.041382 171.098083,187.002365 165.376465,186.955856 
z"/>
<path fill="#B7DBF4" opacity="1.000000" stroke="none" 
	d="
M183.485199,190.949982 
	C184.916962,193.926346 186.196030,197.025650 186.734879,200.248718 
	C186.851761,200.947876 184.327957,202.849396 182.992828,202.877304 
	C179.894104,202.942093 176.778519,202.200943 173.256332,201.609009 
	C173.142853,201.057449 173.412827,200.387146 173.747223,200.353287 
	C179.369186,199.784012 182.591568,196.851791 183.485199,190.949982 
z"/>
<path fill="#E8F8FD" opacity="1.000000" stroke="none" 
	d="
M148.444672,129.550293 
	C144.748199,130.702011 139.620972,128.399704 137.901428,134.756912 
	C132.943817,127.105911 127.977814,119.094452 123.167511,110.990578 
	C119.015549,103.995804 115.544998,103.724785 111.314400,110.545685 
	C104.933258,120.833855 98.713593,131.224075 92.578827,141.661179 
	C91.638016,143.261765 91.519440,145.345657 90.942062,147.872559 
	C85.642296,148.296173 86.022308,152.632767 83.962685,156.192398 
	C89.311790,156.192398 93.689423,156.192398 98.067047,156.192398 
	C100.688484,153.516754 103.542122,151.027847 105.878265,148.122787 
	C109.614120,143.477173 113.006493,138.555313 117.145027,132.933945 
	C125.439445,146.261612 133.398544,159.050476 141.668274,172.338470 
	C114.724121,172.338470 88.700630,172.338470 61.584351,172.338470 
	C62.225975,169.556534 62.226952,167.214645 63.248882,165.471222 
	C79.203766,138.252319 95.249039,111.086037 111.379028,83.970406 
	C114.961403,77.948174 119.127960,78.192856 122.569183,84.230179 
	C131.122559,99.236336 139.730392,114.211441 148.444672,129.550293 
z"/>
<path fill="#418CC3" opacity="1.000000" stroke="none" 
	d="
M97.893684,155.883301 
	C93.689423,156.192398 89.311790,156.192398 83.962685,156.192398 
	C86.022308,152.632767 85.642296,148.296173 91.034866,148.262634 
	C93.377563,150.515518 95.548943,153.044861 97.893684,155.883301 
z"/>
<path fill="#E8F8FD" opacity="1.000000" stroke="none" 
	d="
M137.759674,135.403214 
	C138.148087,135.553085 138.526093,136.024002 138.879181,136.826050 
	C138.485931,136.679535 138.117599,136.201904 137.759674,135.403214 
z"/>
<path fill="#E8F8FD" opacity="1.000000" stroke="none" 
	d="
M138.781158,137.394073 
	C139.156830,137.548019 139.530838,138.020111 139.882187,138.821274 
	C139.499512,138.670975 139.139496,138.191589 138.781158,137.394073 
z"/>
<path fill="#E8F8FD" opacity="1.000000" stroke="none" 
	d="
M139.813034,139.412109 
	C140.182861,139.638504 140.552124,140.226700 140.927704,141.192276 
	C140.560165,140.971085 140.186310,140.372498 139.813034,139.412109 
z"/>
</svg>